# xmcd
#
# Track frame offsets: 
#        150
#        17461
#        37412
#        51977
#        75274
#        93450
#        111512
#        127147
#        145152
#        162609
#        176662
#        196163
#        217518
#        239587
#        256109
#        275010
#        289151
#        307430
#
# Disc length: 4471 seconds
#
# Revision: 0
# Processed by: cddbd v1.5.2PL0 Copyright (c) Steve Scherf et al.
# Submitted via: ExactAudioCopyFreeDBPlugin 1.0
#
DISCID=12117512
DTITLE=Various Artist - Pure Swing 2013
DYEAR=2013
DGENRE=R&B
TTITLE0=Aaliyah - Back and Forth
TTITLE1=TLC - Creep
TTITLE2=Brownstone - If You Love Me
TTITLE3=New Edition - If It Isn't Love
TTITLE4=Whitehead Bros. - Forget I Was A "G"
TTITLE5=Al B. Sure! - Nite and Day
TTITLE6=Horace Brown - One For The Money
TTITLE7=Goodfellaz - Sugar Honey Ice Tea
TTITLE8=Johnny Gill - I'm Still Waiting
TTITLE9=Shai - If I Ever Fall In Love
TTITLE10=Jodeci - Freek'n You
TTITLE11=Joe - All The Things (Your Man Won't Do)
TTITLE12=SWV - Weak
TTITLE13=K-Ci and JoJo - All My Life
TTITLE14=Jon B. - They Don't Know
TTITLE15=Whitehead Bros. - Your Love Is A 187
TTITLE16=Aaron Bell - I Miss You
TTITLE17=Smooth - Undercover Lover
EXTD=
EXTT0=
EXTT1=
EXTT2=
EXTT3=
EXTT4=
EXTT5=
EXTT6=
EXTT7=
EXTT8=
EXTT9=
EXTT10=
EXTT11=
EXTT12=
EXTT13=
EXTT14=
EXTT15=
EXTT16=
EXTT17=
PLAYORDER=
